<?xml version="1.0" encoding="UTF-8"?>
        <svg xmlns="http://www.w3.org/2000/svg" xmlns:xlink="http://www.w3.org/1999/xlink"
             width="512" height="512" viewBox="0 -1100 1100 1100">
<defs>

        <rect id="obstacle" width="70" height="70" fill="#84A1AE" rx="15"/>
        <style>
        .line {stroke: #84A1AE; stroke-width: 10;}
        .agent {r: 35;}
        .target {fill: none; stroke-width: 10; r: 35;}
        </style>
        
</defs>

<line class="line" x1="-50.0" x2="-50.0" y1="0" y2="-1100" />
<line class="line" x1="50.0" x2="50.0" y1="0" y2="-1100" />
<line class="line" x1="150.0" x2="150.0" y1="0" y2="-1100" />
<line class="line" x1="250.0" x2="250.0" y1="0" y2="-1100" />
<line class="line" x1="350.0" x2="350.0" y1="0" y2="-1100" />
<line class="line" x1="450.0" x2="450.0" y1="0" y2="-1100" />
<line class="line" x1="550.0" x2="550.0" y1="0" y2="-1100" />
<line class="line" x1="650.0" x2="650.0" y1="0" y2="-1100" />
<line class="line" x1="750.0" x2="750.0" y1="0" y2="-1100" />
<line class="line" x1="850.0" x2="850.0" y1="0" y2="-1100" />
<line class="line" x1="950.0" x2="950.0" y1="0" y2="-1100" />
<line class="line" x1="1050.0" x2="1050.0" y1="0" y2="-1100" />
<line class="line" x1="0" x2="1100" y1="50.0" y2="50.0" />
<line class="line" x1="0" x2="1100" y1="-50.0" y2="-50.0" />
<line class="line" x1="0" x2="1100" y1="-150.0" y2="-150.0" />
<line class="line" x1="0" x2="1100" y1="-250.0" y2="-250.0" />
<line class="line" x1="0" x2="1100" y1="-350.0" y2="-350.0" />
<line class="line" x1="0" x2="1100" y1="-450.0" y2="-450.0" />
<line class="line" x1="0" x2="1100" y1="-550.0" y2="-550.0" />
<line class="line" x1="0" x2="1100" y1="-650.0" y2="-650.0" />
<line class="line" x1="0" x2="1100" y1="-750.0" y2="-750.0" />
<line class="line" x1="0" x2="1100" y1="-850.0" y2="-850.0" />
<line class="line" x1="0" x2="1100" y1="-950.0" y2="-950.0" />
<line class="line" x1="0" x2="1100" y1="-1050.0" y2="-1050.0" />
<use href="#obstacle" x="65" y="-135" />
<use href="#obstacle" x="65" y="-235" />
<use href="#obstacle" x="65" y="-335" />
<use href="#obstacle" x="65" y="-435" />
<use href="#obstacle" x="65" y="-535" />
<use href="#obstacle" x="65" y="-635" />
<use href="#obstacle" x="65" y="-735" />
<use href="#obstacle" x="65" y="-835" />
<use href="#obstacle" x="65" y="-935" />
<use href="#obstacle" x="65" y="-1035" />
<use href="#obstacle" x="165" y="-135" />
<use href="#obstacle" x="165" y="-1035" />
<use href="#obstacle" x="265" y="-135" />
<use href="#obstacle" x="265" y="-1035" />
<use href="#obstacle" x="365" y="-135" />
<use href="#obstacle" x="365" y="-1035" />
<use href="#obstacle" x="465" y="-135" />
<use href="#obstacle" x="465" y="-1035" />
<use href="#obstacle" x="565" y="-135" />
<use href="#obstacle" x="565" y="-435" />
<use href="#obstacle" x="565" y="-535" />
<use href="#obstacle" x="565" y="-635" />
<use href="#obstacle" x="565" y="-735" />
<use href="#obstacle" x="565" y="-1035" />
<use href="#obstacle" x="665" y="-135" />
<use href="#obstacle" x="665" y="-1035" />
<use href="#obstacle" x="765" y="-135" />
<use href="#obstacle" x="765" y="-1035" />
<use href="#obstacle" x="865" y="-135" />
<use href="#obstacle" x="865" y="-1035" />
<use href="#obstacle" x="965" y="-135" />
<use href="#obstacle" x="965" y="-235" />
<use href="#obstacle" x="965" y="-335" />
<use href="#obstacle" x="965" y="-435" />
<use href="#obstacle" x="965" y="-535" />
<use href="#obstacle" x="965" y="-635" />
<use href="#obstacle" x="965" y="-735" />
<use href="#obstacle" x="965" y="-835" />
<use href="#obstacle" x="965" y="-935" />
<use href="#obstacle" x="965" y="-1035" />
<circle class="agent" cx="200" cy="-700" fill="#c1433c" r="35"> <animate attributeName="cy" dur="2.5s" keyTimes="0.0;0.0909090909;0.2727272727;0.3636363636;1.0" repeatCount="indefinite" values="-700;-700;-700;-800;-800"/>
<animate attributeName="cx" dur="2.5s" keyTimes="0.0;0.0909090909;0.1818181818;0.2727272727;0.3636363636;0.4545454545;0.5454545455;0.6363636364;0.7272727273;1.0" repeatCount="indefinite" values="200;200;300;400;400;500;600;700;800;800"/>
<animate attributeName="visibility" dur="2.5s" keyTimes="0.0;0.0909090909;0.6363636364;0.7272727273;1.0" repeatCount="indefinite" values="visible;visible;visible;hidden;hidden"/> </circle>
<circle class="agent" cx="300" cy="-200" fill="#2e6f9e" r="35"> <animate attributeName="cy" dur="2.5s" keyTimes="0.0;0.0909090909;0.1818181818;0.5454545455;0.6363636364;0.7272727273;1.0" repeatCount="indefinite" values="-200;-200;-300;-300;-400;-500;-500"/>
<animate attributeName="cx" dur="2.5s" keyTimes="0.0;0.0909090909;0.1818181818;0.2727272727;0.3636363636;0.4545454545;0.5454545455;0.7272727273;0.8181818182;0.9090909091;1.0" repeatCount="indefinite" values="300;300;300;400;500;600;700;700;800;900;900"/>
<animate attributeName="visibility" dur="2.5s" keyTimes="0.0;0.0909090909;0.8181818182;0.9090909091;1.0" repeatCount="indefinite" values="visible;visible;visible;hidden;hidden"/> </circle>
<circle class="target" cx="800" cy="-800" r="35" stroke="#c1433c"> <animate attributeName="visibility" dur="2.5s" keyTimes="0.0;0.0909090909;0.6363636364;0.7272727273;1.0" repeatCount="indefinite" values="visible;visible;visible;hidden;hidden"/> </circle>
<circle class="target" cx="900" cy="-500" r="35" stroke="#2e6f9e"> <animate attributeName="visibility" dur="2.5s" keyTimes="0.0;0.0909090909;0.8181818182;0.9090909091;1.0" repeatCount="indefinite" values="visible;visible;visible;hidden;hidden"/> </circle>
</svg>